<mxfile host="app.diagrams.net" agent="Mozilla/5.0 (Windows NT 10.0; Win64; x64) AppleWebKit/537.36 (KHTML, like Gecko) Chrome/135.0.0.0 Safari/537.36" version="26.1.3">
  <diagram name="Page-1" id="fX7xnnpLvpXNJ_9rikf5">
    <mxGraphModel dx="1222" dy="646" grid="1" gridSize="10" guides="1" tooltips="1" connect="1" arrows="1" fold="1" page="1" pageScale="1" pageWidth="850" pageHeight="1100" math="0" shadow="0">
      <root>
        <mxCell id="0" />
        <mxCell id="1" parent="0" />
        <mxCell id="uxjvmXyPQceOIYYgEGWs-1" value="&amp;nbsp; &amp;nbsp;User Input&amp;nbsp;" style="rounded=1;whiteSpace=wrap;html=1;" vertex="1" parent="1">
          <mxGeometry x="405" y="20" width="120" height="60" as="geometry" />
        </mxCell>
        <mxCell id="uxjvmXyPQceOIYYgEGWs-2" value="&lt;div style=&quot;&quot;&gt;&lt;div style=&quot;text-align: center;&quot;&gt;&lt;span style=&quot;background-color: transparent; color: light-dark(rgb(0, 0, 0), rgb(255, 255, 255));&quot; data-end=&quot;479&quot; data-start=&quot;464&quot;&gt;&lt;font style=&quot;font-size: 15px;&quot;&gt;&lt;b&gt;travel_node&lt;/b&gt;&lt;/font&gt;&lt;/span&gt;&lt;/div&gt;&lt;div style=&quot;text-align: center;&quot;&gt;&lt;span style=&quot;background-color: transparent; color: light-dark(rgb(0, 0, 0), rgb(255, 255, 255));&quot; data-end=&quot;479&quot; data-start=&quot;464&quot;&gt;&lt;font style=&quot;font-size: 15px;&quot;&gt;&lt;b&gt;&lt;br&gt;&lt;/b&gt;&lt;/font&gt;&lt;/span&gt;&lt;/div&gt;&lt;font style=&quot;font-size: 11px;&quot;&gt;&lt;br data-end=&quot;521&quot; data-start=&quot;518&quot;&gt;&amp;nbsp; &amp;nbsp; • Uses: travel_conversational_chain&lt;/font&gt;&lt;/div&gt;&lt;div style=&quot;&quot;&gt;&lt;font style=&quot;font-size: 11px;&quot;&gt;&lt;br&gt; • Prompt: travel_prompt&lt;br data-end=&quot;548&quot; data-start=&quot;545&quot;&gt;&lt;br&gt; • Retriever: Pinecone retriever&lt;br data-end=&quot;583&quot; data-start=&quot;580&quot;&gt;&lt;br&gt; • Handles: destinations, itineraries, attractions, best time to visit&lt;/font&gt;&lt;/div&gt;" style="rounded=1;whiteSpace=wrap;html=1;align=left;" vertex="1" parent="1">
          <mxGeometry x="60" y="240" width="200" height="200" as="geometry" />
        </mxCell>
        <mxCell id="uxjvmXyPQceOIYYgEGWs-3" value="&lt;span data-end=&quot;673&quot; data-start=&quot;659&quot;&gt;&lt;font style=&quot;font-size: 16px;&quot;&gt;&lt;b&gt;sales_node&lt;/b&gt;&lt;/font&gt;&lt;/span&gt;&lt;br data-end=&quot;676&quot; data-start=&quot;673&quot;&gt;&lt;br&gt;&lt;div style=&quot;text-align: left;&quot;&gt;&lt;span style=&quot;background-color: transparent; color: light-dark(rgb(0, 0, 0), rgb(255, 255, 255));&quot;&gt;&lt;font style=&quot;font-size: 11px;&quot;&gt; • Uses: sales_conversational_chain&lt;/font&gt;&lt;/span&gt;&lt;/div&gt;&lt;div style=&quot;text-align: left;&quot;&gt;&lt;font style=&quot;font-size: 11px;&quot;&gt;&lt;br&gt;&lt;/font&gt;&lt;/div&gt;&lt;div style=&quot;text-align: left;&quot;&gt;&lt;span style=&quot;background-color: transparent; color: light-dark(rgb(0, 0, 0), rgb(255, 255, 255));&quot;&gt;&lt;font style=&quot;font-size: 11px;&quot;&gt; • Prompt: sales_prompt&lt;/font&gt;&lt;/span&gt;&lt;/div&gt;&lt;div style=&quot;text-align: left;&quot;&gt;&lt;font style=&quot;font-size: 11px;&quot;&gt;&lt;br&gt;&lt;/font&gt;&lt;/div&gt;&lt;div style=&quot;text-align: left;&quot;&gt;&lt;span style=&quot;background-color: transparent; color: light-dark(rgb(0, 0, 0), rgb(255, 255, 255));&quot;&gt;&lt;font style=&quot;font-size: 11px;&quot;&gt; • Retriever: Pinecone retriever&lt;/font&gt;&lt;/span&gt;&lt;/div&gt;&lt;div style=&quot;text-align: left;&quot;&gt;&lt;font style=&quot;font-size: 11px;&quot;&gt;&lt;br&gt;&lt;/font&gt;&lt;/div&gt;&lt;div style=&quot;text-align: left;&quot;&gt;&lt;span style=&quot;background-color: transparent; color: light-dark(rgb(0, 0, 0), rgb(255, 255, 255));&quot;&gt;&lt;font style=&quot;font-size: 11px;&quot;&gt; • Handles: price, duration, inclusions, exclusions&lt;/font&gt;&lt;/span&gt;&lt;/div&gt;" style="rounded=1;whiteSpace=wrap;html=1;" vertex="1" parent="1">
          <mxGeometry x="280" y="240" width="190" height="200" as="geometry" />
        </mxCell>
        <mxCell id="uxjvmXyPQceOIYYgEGWs-4" value="&lt;span data-end=&quot;846&quot; data-start=&quot;832&quot;&gt;&lt;font style=&quot;font-size: 15px;&quot;&gt;&lt;b&gt;multi_node&lt;/b&gt;&lt;/font&gt;&lt;/span&gt;&lt;br data-end=&quot;849&quot; data-start=&quot;846&quot;&gt;&lt;br&gt;&lt;div style=&quot;text-align: left;&quot;&gt;&lt;span style=&quot;background-color: transparent; color: light-dark(rgb(0, 0, 0), rgb(255, 255, 255));&quot;&gt; • Calls both travel_conversational_chain and sales_conversational_chain&lt;/span&gt;&lt;/div&gt;&lt;div style=&quot;text-align: left;&quot;&gt;&lt;br&gt;&lt;/div&gt;&lt;div style=&quot;text-align: left;&quot;&gt;&lt;span style=&quot;background-color: transparent; color: light-dark(rgb(0, 0, 0), rgb(255, 255, 255));&quot;&gt; • Combines answers from both agents&lt;/span&gt;&lt;/div&gt;&lt;div style=&quot;text-align: left;&quot;&gt;&lt;br&gt;&lt;/div&gt;&lt;div style=&quot;text-align: left;&quot;&gt;&lt;span style=&quot;background-color: transparent; color: light-dark(rgb(0, 0, 0), rgb(255, 255, 255));&quot;&gt; • Uses same Pinecone retriever&lt;/span&gt;&lt;/div&gt;" style="rounded=1;whiteSpace=wrap;html=1;strokeWidth=1;perimeterSpacing=1;" vertex="1" parent="1">
          <mxGeometry x="510" y="240" width="180" height="200" as="geometry" />
        </mxCell>
        <mxCell id="uxjvmXyPQceOIYYgEGWs-5" value="&lt;span data-end=&quot;1017&quot; data-start=&quot;1000&quot;&gt;&lt;font style=&quot;font-size: 15px;&quot;&gt;&lt;b&gt;fallback_node&lt;/b&gt;&lt;/font&gt;&lt;/span&gt;&lt;br data-end=&quot;1020&quot; data-start=&quot;1017&quot;&gt;&lt;font style=&quot;font-size: 11px;&quot;&gt;&lt;br&gt;• Returns static fallback message&lt;br data-end=&quot;1057&quot; data-start=&quot;1054&quot;&gt;&lt;br&gt; • Triggered if the router can’t classify the query&lt;/font&gt;" style="rounded=1;whiteSpace=wrap;html=1;" vertex="1" parent="1">
          <mxGeometry x="710" y="240" width="170" height="200" as="geometry" />
        </mxCell>
        <mxCell id="uxjvmXyPQceOIYYgEGWs-6" value="&lt;div&gt;&amp;nbsp;Router (LLMChain)&amp;nbsp;&lt;span style=&quot;background-color: transparent; color: light-dark(rgb(0, 0, 0), rgb(255, 255, 255));&quot;&gt;travel / sales / multi&amp;nbsp; &lt;/span&gt;&lt;span style=&quot;background-color: transparent; color: light-dark(rgb(0, 0, 0), rgb(255, 255, 255));&quot;&gt;or fallback&amp;nbsp; &amp;nbsp;&lt;/span&gt;&lt;/div&gt;" style="rounded=1;whiteSpace=wrap;html=1;" vertex="1" parent="1">
          <mxGeometry x="360" y="120" width="210" height="60" as="geometry" />
        </mxCell>
        <mxCell id="uxjvmXyPQceOIYYgEGWs-7" value="Pinecone Vector Database&lt;div&gt;(Embeddings of combined_text + metadata from df_with_embeddings.pkl)&amp;nbsp;&lt;/div&gt;" style="rounded=0;whiteSpace=wrap;html=1;" vertex="1" parent="1">
          <mxGeometry x="200" y="510" width="580" height="60" as="geometry" />
        </mxCell>
        <mxCell id="uxjvmXyPQceOIYYgEGWs-8" value="Final Answer" style="rounded=1;whiteSpace=wrap;html=1;" vertex="1" parent="1">
          <mxGeometry x="430" y="610" width="120" height="60" as="geometry" />
        </mxCell>
        <mxCell id="uxjvmXyPQceOIYYgEGWs-9" value="" style="endArrow=classic;html=1;rounded=0;entryX=0.5;entryY=0;entryDx=0;entryDy=0;exitX=0.5;exitY=1;exitDx=0;exitDy=0;" edge="1" parent="1" source="uxjvmXyPQceOIYYgEGWs-1" target="uxjvmXyPQceOIYYgEGWs-6">
          <mxGeometry width="50" height="50" relative="1" as="geometry">
            <mxPoint x="220" y="150" as="sourcePoint" />
            <mxPoint x="270" y="100" as="targetPoint" />
          </mxGeometry>
        </mxCell>
        <mxCell id="uxjvmXyPQceOIYYgEGWs-11" value="" style="endArrow=classic;html=1;rounded=0;entryX=0.5;entryY=0;entryDx=0;entryDy=0;" edge="1" parent="1" target="uxjvmXyPQceOIYYgEGWs-2">
          <mxGeometry width="50" height="50" relative="1" as="geometry">
            <mxPoint x="470" y="180" as="sourcePoint" />
            <mxPoint x="230" y="100" as="targetPoint" />
            <Array as="points">
              <mxPoint x="470" y="210" />
              <mxPoint x="160" y="210" />
            </Array>
          </mxGeometry>
        </mxCell>
        <mxCell id="uxjvmXyPQceOIYYgEGWs-12" value="" style="endArrow=classic;html=1;rounded=0;entryX=0.5;entryY=0;entryDx=0;entryDy=0;" edge="1" parent="1" target="uxjvmXyPQceOIYYgEGWs-3">
          <mxGeometry width="50" height="50" relative="1" as="geometry">
            <mxPoint x="375" y="210" as="sourcePoint" />
            <mxPoint x="130" y="80" as="targetPoint" />
          </mxGeometry>
        </mxCell>
        <mxCell id="uxjvmXyPQceOIYYgEGWs-13" value="" style="endArrow=classic;html=1;rounded=0;entryX=0.5;entryY=0;entryDx=0;entryDy=0;" edge="1" parent="1" target="uxjvmXyPQceOIYYgEGWs-4">
          <mxGeometry width="50" height="50" relative="1" as="geometry">
            <mxPoint x="470" y="210" as="sourcePoint" />
            <mxPoint x="220" y="70" as="targetPoint" />
            <Array as="points">
              <mxPoint x="600" y="210" />
            </Array>
          </mxGeometry>
        </mxCell>
        <mxCell id="uxjvmXyPQceOIYYgEGWs-14" value="" style="endArrow=classic;html=1;rounded=0;entryX=0.5;entryY=0;entryDx=0;entryDy=0;" edge="1" parent="1" target="uxjvmXyPQceOIYYgEGWs-5">
          <mxGeometry width="50" height="50" relative="1" as="geometry">
            <mxPoint x="600" y="210" as="sourcePoint" />
            <mxPoint x="270" y="90" as="targetPoint" />
            <Array as="points">
              <mxPoint x="795" y="210" />
            </Array>
          </mxGeometry>
        </mxCell>
        <mxCell id="uxjvmXyPQceOIYYgEGWs-15" value="" style="endArrow=classic;html=1;rounded=0;entryX=0.5;entryY=0;entryDx=0;entryDy=0;exitX=0.5;exitY=1;exitDx=0;exitDy=0;" edge="1" parent="1" source="uxjvmXyPQceOIYYgEGWs-5" target="uxjvmXyPQceOIYYgEGWs-7">
          <mxGeometry width="50" height="50" relative="1" as="geometry">
            <mxPoint x="100" y="530" as="sourcePoint" />
            <mxPoint x="150" y="480" as="targetPoint" />
            <Array as="points">
              <mxPoint x="795" y="470" />
              <mxPoint x="520" y="470" />
              <mxPoint x="490" y="470" />
            </Array>
          </mxGeometry>
        </mxCell>
        <mxCell id="uxjvmXyPQceOIYYgEGWs-16" value="" style="endArrow=none;html=1;rounded=0;entryX=0.5;entryY=1;entryDx=0;entryDy=0;" edge="1" parent="1" target="uxjvmXyPQceOIYYgEGWs-4">
          <mxGeometry width="50" height="50" relative="1" as="geometry">
            <mxPoint x="600" y="470" as="sourcePoint" />
            <mxPoint x="620" y="450" as="targetPoint" />
          </mxGeometry>
        </mxCell>
        <mxCell id="uxjvmXyPQceOIYYgEGWs-17" value="" style="endArrow=none;html=1;rounded=0;entryX=0.5;entryY=1;entryDx=0;entryDy=0;" edge="1" parent="1" target="uxjvmXyPQceOIYYgEGWs-2">
          <mxGeometry width="50" height="50" relative="1" as="geometry">
            <mxPoint x="380" y="470" as="sourcePoint" />
            <mxPoint x="120" y="540" as="targetPoint" />
            <Array as="points">
              <mxPoint x="160" y="470" />
            </Array>
          </mxGeometry>
        </mxCell>
        <mxCell id="uxjvmXyPQceOIYYgEGWs-18" value="" style="endArrow=none;html=1;rounded=0;entryX=0.5;entryY=1;entryDx=0;entryDy=0;" edge="1" parent="1" target="uxjvmXyPQceOIYYgEGWs-3">
          <mxGeometry width="50" height="50" relative="1" as="geometry">
            <mxPoint x="520" y="470" as="sourcePoint" />
            <mxPoint x="80" y="500" as="targetPoint" />
            <Array as="points">
              <mxPoint x="375" y="470" />
            </Array>
          </mxGeometry>
        </mxCell>
        <mxCell id="uxjvmXyPQceOIYYgEGWs-20" style="edgeStyle=orthogonalEdgeStyle;rounded=0;orthogonalLoop=1;jettySize=auto;html=1;exitX=0.5;exitY=1;exitDx=0;exitDy=0;" edge="1" parent="1" source="uxjvmXyPQceOIYYgEGWs-8" target="uxjvmXyPQceOIYYgEGWs-8">
          <mxGeometry relative="1" as="geometry" />
        </mxCell>
        <mxCell id="uxjvmXyPQceOIYYgEGWs-21" value="" style="endArrow=classic;html=1;rounded=0;entryX=0.5;entryY=0;entryDx=0;entryDy=0;exitX=0.5;exitY=1;exitDx=0;exitDy=0;" edge="1" parent="1" source="uxjvmXyPQceOIYYgEGWs-7" target="uxjvmXyPQceOIYYgEGWs-8">
          <mxGeometry width="50" height="50" relative="1" as="geometry">
            <mxPoint x="380" y="440" as="sourcePoint" />
            <mxPoint x="430" y="390" as="targetPoint" />
          </mxGeometry>
        </mxCell>
      </root>
    </mxGraphModel>
  </diagram>
</mxfile>
